<?xml version="1.0" encoding="UTF-8"?>
<svg xmlns="http://www.w3.org/2000/svg" viewBox="0 0 512 512" width="512" height="512"><g id="Filled_outline" data-name="Filled outline"><path d="M488,168a56.011,56.011,0,0,0-36.193-52.384,48,48,0,0,0-72.513-58.089,56,56,0,0,0-102.588,0,48,48,0,0,0-72.513,58.089,56.006,56.006,0,0,0,0,104.768,48,48,0,0,0,72.513,58.089,56,56,0,0,0,102.588,0,48,48,0,0,0,72.513-58.089A56.011,56.011,0,0,0,488,168Z" style="fill:#ffb431"/><path d="M24,296a32,32,0,0,0,32,32H216a32,32,0,0,0,32-32V192A112,112,0,0,0,136,80h0A112,112,0,0,0,24,192Z" style="fill:#784533"/><path d="M222.276,354.855,208,352l-33.569-6.714A8,8,0,0,1,168,337.441V296H104v41.441a8,8,0,0,1-6.431,7.845L64,352l-14.276,2.855A32,32,0,0,0,24,386.233V456a32,32,0,0,0,32,32H216a32,32,0,0,0,32-32V386.233A32,32,0,0,0,222.276,354.855Z" style="fill:#fdc8a2"/><path d="M168,296v41.33a80.1,80.1,0,0,1-64,0V296Z" style="fill:#fdbf92"/><path d="M248,456V386.234a32,32,0,0,0-25.724-31.379L208,352l-17.373,17.373A77.254,77.254,0,0,1,136,392h0a77.254,77.254,0,0,1-54.627-22.627L64,352l-14.276,2.855A32,32,0,0,0,24,386.234V456a32,32,0,0,0,32,32H216A32,32,0,0,0,248,456Z" style="fill:#de5540"/><path d="M104,144h64a48,48,0,0,1,48,48v56a80,80,0,0,1-80,80h0a80,80,0,0,1-80-80V192A48,48,0,0,1,104,144Z" style="fill:#fdc8a2"/><path d="M248,192V296a32,32,0,0,1-32,32V208h-7.5c-.28,0-.56,0-.83-.01A73.056,73.056,0,0,1,136,144a73.037,73.037,0,0,1-72,63.99c-.17.01-.33.01-.5.01H56V328a31.991,31.991,0,0,1-32-32V192A111.983,111.983,0,0,1,128,80.29c2.64-.2,5.31-.29,8-.29s5.36.09,8,.29A111.977,111.977,0,0,1,248,192Z" style="fill:#844e3a"/><path d="M48,191.877V208H64V191.877a81.674,81.674,0,0,1,1.292-14.457l-15.746-2.84A97.67,97.67,0,0,0,48,191.877Z" style="fill:#784533"/><path d="M55.669,488h0A31.669,31.669,0,0,1,24,456.331h0a76.951,76.951,0,0,1,6.633-31.254L56,368h56L86.269,464.491A31.669,31.669,0,0,1,55.669,488Z" style="fill:#e86954"/><path d="M56,368l18.16-48.427A24,24,0,0,1,96.632,304h41.421A13.947,13.947,0,0,1,152,317.947h0a13.947,13.947,0,0,1-9.537,13.232L128,336h0a38.628,38.628,0,0,1-11.314,27.314L112,368Z" style="fill:#ffd4b5"/><path d="M200,440H136V424h56V408h16v24A8,8,0,0,1,200,440Z" style="fill:#d64a34"/><path d="M136,488H76a12,12,0,0,1-12-12V444a12,12,0,0,1,12-12h28l0-10.4A13.593,13.593,0,0,1,117.592,408h.293a13.966,13.966,0,0,1,13.3,9.537C133.411,424.234,136,432,136,432Z" style="fill:#fdc8a2"/><path d="M496,168a64.384,64.384,0,0,1-34.15,56.6A56.032,56.032,0,0,1,382.342,289.8a63.992,63.992,0,0,1-112.958-8.114l14.652-6.428a47.994,47.994,0,0,0,87.928,0,8,8,0,0,1,12.117-3.193A39.635,39.635,0,0,0,408,280a40.006,40.006,0,0,0,36.508-56.353,8,8,0,0,1,4.471-10.75,48,48,0,0,0,0-89.794,8,8,0,0,1-4.471-10.75,40,40,0,0,0-60.427-48.416,8,8,0,0,1-12.117-3.193,47.994,47.994,0,0,0-87.928,0,8,8,0,0,1-12.117,3.193A39.635,39.635,0,0,0,248,56a40.156,40.156,0,0,0-34.653,20.006L199.5,67.994A56.2,56.2,0,0,1,248,40a55.562,55.562,0,0,1,25.658,6.2,63.989,63.989,0,0,1,108.684,0A56.027,56.027,0,0,1,461.85,111.4,64.384,64.384,0,0,1,496,168Zm-200,4a12,12,0,1,0-12,12A12.013,12.013,0,0,0,296,172Zm40,0a12,12,0,1,0-12,12A12.013,12.013,0,0,0,336,172Zm40,0a12,12,0,1,0-12,12A12.013,12.013,0,0,0,376,172Zm40,0a12,12,0,1,0-12,12A12.013,12.013,0,0,0,416,172ZM96,216a16,16,0,1,0,16,16A16.019,16.019,0,0,0,96,216Zm80,32a16,16,0,1,0-16-16A16.019,16.019,0,0,0,176,248Zm80-56V296a40.045,40.045,0,0,1-40,40H176v1.44L223.846,347A40.128,40.128,0,0,1,256,386.23V416H240V386.23a24.079,24.079,0,0,0-19.294-23.537l-10.073-2.012-14.346,14.346a85.164,85.164,0,0,1-83.667,21.69l-1.109,4.156a21.693,21.693,0,0,1,6.081-.873h.293a21.964,21.964,0,0,1,20.885,15.008l3,8.992H192V408h16v24a8,8,0,0,1-8,8H144v40h72a24.028,24.028,0,0,0,24-24V432h16v24a40.045,40.045,0,0,1-40,40H56a40.043,40.043,0,0,1-39.992-39.67H16c0-.073,0-.145,0-.218,0-.037,0-.074,0-.112V386.23a40.125,40.125,0,0,1,32.146-39.224l7.765-1.55L59.457,336H56a40.045,40.045,0,0,1-40-40V192a119.839,119.839,0,0,1,17.147-61.85l13.706,8.258A103.817,103.817,0,0,0,32,192V296a24.042,24.042,0,0,0,16,22.629V191.877a97.733,97.733,0,0,1,1.546-17.3l15.746,2.842A81.612,81.612,0,0,0,64,191.877v8.111a65.161,65.161,0,0,0,63.474-53.258A338.045,338.045,0,0,1,84.2,179.052l-8.4-13.619c24.252-14.956,45.348-34.3,52.2-40.823V113.015a76.654,76.654,0,0,0-7.972,2.021,79.255,79.255,0,0,0-50.675,47.821l-14.946-5.714a95.175,95.175,0,0,1,60.877-57.388A90.518,90.518,0,0,1,128,96.762v-8.45a103.819,103.819,0,0,0-71.669,36.834l-12.25-10.292A120,120,0,0,1,256,192ZM144,143.421a65.15,65.15,0,0,0,63.667,56.559s-.029-9.377-.049-10.016c-16.68-8.082-34.571-21.6-53.275-40.307l11.314-11.314c13.394,13.394,26.185,23.863,38.208,31.3C195.693,145.4,174.66,122.381,144,113.956ZM64,320h1.457l1.213-3.235a31.709,31.709,0,0,1,5-8.739A87.888,87.888,0,0,1,64,298.585ZM32,402.3,48.6,364.96l.662-1.764A24.086,24.086,0,0,0,32,386.23ZM56,476V444a20.023,20.023,0,0,1,20-20H88.784l12.8-48H61.2L37.94,428.329A69.1,69.1,0,0,0,32,456.167,24.026,24.026,0,0,0,56,480h.4A20.047,20.047,0,0,1,56,476Zm56-44a8,8,0,0,1-8,8H76a4,4,0,0,0-4,4v32a4,4,0,0,0,4,4h52V433.3l-4.41-13.232a5.984,5.984,0,0,0-5.7-4.066h-.293A5.594,5.594,0,0,0,112,421.594Zm8-96a8,8,0,0,1,5.47-7.59l14.463-4.821A5.947,5.947,0,0,0,138.053,312H96.632A16.075,16.075,0,0,0,81.65,322.382L67.544,360h41.143l2.342-2.344A30.423,30.423,0,0,0,120,336Zm52.861,17.135A16.051,16.051,0,0,1,160,337.44v-4.78q-3.674,1.041-7.446,1.762a21.929,21.929,0,0,1-7.561,4.347l-9.359,3.119a46.285,46.285,0,0,1-13.29,27.083l-3.169,3.168-2.432,9.121a69.2,69.2,0,0,0,68.23-17.547l6.8-6.8ZM208,298.577c-1.649,2.348-3.407,4.629-5.293,6.819A88.283,88.283,0,0,1,186.562,320H208ZM208,216a81.239,81.239,0,0,1-72-44.813A81.239,81.239,0,0,1,64,216v32a71.979,71.979,0,0,0,20.6,50.378A31.761,31.761,0,0,1,96.632,296h41.421a21.975,21.975,0,0,1,21.85,19.925A72.023,72.023,0,0,0,208,248Zm32-24A104.139,104.139,0,0,0,144,88.305v9.167a105.635,105.635,0,0,1,55.894,33.78c15.108,17.53,23.773,39.628,23.773,60.625L224,318.629A24.042,24.042,0,0,0,240,296ZM112,280h48V264H112Z"/></g></svg>
